<?xml version="1.0" standalone="no"?>
<!DOCTYPE svg PUBLIC "-//W3C//DTD SVG 20010904//EN"
 "http://www.w3.org/TR/2001/REC-SVG-20010904/DTD/svg10.dtd">
<svg version="1.0" xmlns="http://www.w3.org/2000/svg"
 width="326.000000pt" height="59.000000pt" viewBox="0 0 326.000000 59.000000"
 preserveAspectRatio="xMidYMid meet">

<g transform="translate(0.000000,59.000000) scale(0.100000,-0.100000)"
fill="rgb(31,36,45)" stroke="none">
<path d="M57 552 c-38 -5 -52 -34 -29 -61 19 -23 -122 -11 1326 -115 340 -25
620 -47 622 -49 6 -6 -468 -17 -747 -17 -141 0 -311 -3 -378 -7 -104 -5 -123
-9 -132 -25 -13 -24 4 -56 34 -63 103 -22 1165 -195 1185 -193 30 4 46 39 29
62 -9 12 -97 31 -337 72 -178 30 -326 57 -328 59 -7 7 325 15 965 23 533 7
685 11 697 22 25 20 20 69 -6 80 -20 9 -505 46 -1243 96 -132 9 -243 20 -247
23 -4 3 392 6 879 6 l886 0 14 21 c12 19 11 24 -4 42 -18 20 -21 20 -1588 24
-863 2 -1582 2 -1598 0z"/>
</g>
</svg>
